PathFileType	4	(X/Y/Z)	C:/Users/beibeiliu/ov580/test_trc\sequence.37_training_dense_left.trc
DataRate	CameraRate	NumFrames	NumMarkers	Units	OrigDataRate	OrigDataStartFrame	OrigNumFrames
120	120	11	19	mm	120	51	152
Frame#	Time	ThumbCMC			ThumbMCP			ThumbIP			ThumbTip			IndexMCP			IndexPIP			IndexTip			MiddleMCP			MiddlePIP			MiddleTip			RingMCP			RingPIP			RingTip			PinkyMCP			PinkyPIP			PinkyTip			BackHand1			BackHand2			BackHand3	
		X0	Y0	Z0	X1	Y1	Z1	X2	Y2	Z2	X3	Y3	Z3	X4	Y4	Z4	X5	Y5	Z5	X6	Y6	Z6	X7	Y7	Z7	X8	Y8	Z8	X9	Y9	Z9	X10	Y10	Z10	X11	Y11	Z11	X12	Y12	Z12	X13	Y13	Z13	X14	Y14	Z14	X15	Y15	Z15	X16	Y16	Z16	X17	Y17	Z17	X18	Y18	Z18	
50	0.416667	-114.572	-14.5012	67.0924	-101.569	-30.8026	45.8826	-92.3239	-39.8152	28.508	-82.2039	-50.2165	11.1376	-95.7522	-2.75992	2.77667	-92.4881	-9.55056	-23.6309	-85.6741	-20.6533	-39.8667	-117.546	-2.71161	-11.6942	-119.272	-25.8653	-30.6766	-130.615	-52.6152	-27.5136	-135.416	10.5018	-9.09587	-133.868	4.30545	-35.92	-129.595	-6.03014	-56.3237	-157.945	17.0081	0.34779	-160.29	23.2383	-11.9613	-157.056	34.8008	-23.5496	-145.395	20.3017	35.5846	-151.397	23.5167	57.1739	-124.333	16.5397	52.0932	
51	0.425	-115.059	-15.13	68.3056	-100.44	-33.3535	50.5222	-93.064	-40.4666	30.1487	-81.9237	-50.5572	10.4779	-97.2224	-3.66665	0.496648	-91.8478	-13.4451	-21.1395	-88.8715	-26.3083	-42.2163	-116.627	-2.08336	-10.3587	-113.464	-19.2897	-30.5016	-126.217	-51.2807	-40.4022	-133.64	9.29812	-9.02775	-130.698	4.33704	-33.3791	-132.19	-2.1444	-52.4307	-160.885	16.0206	3.85163	-159.173	23.6502	-14.8153	-156.385	33.1989	-27.191	-143.93	18.7115	34.8523	-153.838	22.3133	58.1049	-122.13	15.8066	52.9142	
52	0.433333	-115.002	-13.6518	65.0187	-101.815	-31.6781	51.5451	-85.6676	-41.901	27.8646	-80.4717	-51.0013	12.4112	-97.099	-6.22193	1.1202	-91.8397	-18.5172	-19.5293	-90.7835	-35.7513	-38.7437	-113.77	0.136074	-14.1058	-108.141	-12.4104	-32.2017	-110.536	-36.3237	-50.6511	-136.965	10.6839	-7.45003	-129.397	7.36514	-31.3772	-128.873	2.92968	-53.6113	-158.444	15.8757	2.66999	-157.444	23.433	-15.4945	-158.541	37.5587	-27.9071	-141.595	16.8678	34.061	-152.321	23.3691	60.6735	-119.48	14.2092	51.5649	
53	0.441667	-110.334	-17.2684	68.5341	-93.2415	-33.7032	48.5517	-81.3451	-43.7684	29.7161	-77.2725	-51.5124	14.646	-91.9742	-9.91181	2.51025	-87.0553	-25.9615	-17.9941	-86.118	-42.5195	-31.9605	-104.573	1.41103	-11.0017	-100.725	-5.43198	-34.7694	-100.092	-17.2938	-57.4751	-126.636	9.33503	-8.08686	-126.507	7.88714	-29.7417	-121.665	4.73122	-49.3362	-150.665	14.1832	2.63828	-150.766	20.3071	-15.4201	-152.011	31.9351	-27.4176	-140.884	18.6209	37.679	-145.91	20.6056	59.8211	-114.505	11.7125	52.5519	
54	0.45	-103.202	-17.3165	64.8768	-90.5408	-33.352	50.333	-76.9612	-42.9308	30.7888	-71.6758	-50.8096	15.0559	-87.3159	-10.8641	1.87443	-81.8713	-28.5874	-19.8869	-82.0784	-44.6869	-31.3866	-105.393	4.91975	-9.86079	-95.5657	-0.749146	-33.3942	-90.3235	-4.30659	-57.18	-127.954	6.30977	-8.25627	-124.808	1.9836	-33.6577	-118.713	-5.34405	-50.6373	-147.952	11.0841	-1.10008	-148.251	14.725	-16.8366	-148.093	22.7056	-32.7591	-136.175	16.4721	35.7619	-145.277	16.3973	60.4267	-112.579	8.94489	53.916	
55	0.458333	-101.59	-15.6133	65.7566	-83.3406	-32.0208	48.6955	-75.0221	-39.0473	30.163	-62.4295	-49.5699	14.2908	-85.0445	-5.5419	3.72539	-79.2443	-21.6721	-18.031	-77.4164	-39.7071	-33.3173	-99.7045	7.37599	-7.50422	-91.019	6.04859	-30.4594	-89.9526	6.76939	-51.7572	-120.895	4.42485	-5.81931	-118.908	-5.73163	-34.5342	-115.048	-17.7186	-48.7288	-145.537	8.57699	-0.589607	-142.572	8.86859	-15.9757	-146.649	15.9284	-37.5948	-130.975	14.3678	37.9015	-137.653	16.1532	60.4385	-111.006	12.8752	57.2563	
56	0.466667	-95.5821	-13.31	65.6199	-78.6226	-29.6825	50.0892	-67.4538	-37.4008	30.877	-59.6398	-46.2991	16.2666	-78.9704	-2.48185	2.84736	-73.1898	-15.7888	-16.7996	-70.2109	-31.1129	-32.7162	-96.2334	10.615	-8.86356	-90.7507	8.92491	-31.886	-87.7235	10.0965	-55.5778	-117.851	3.70228	-6.17489	-115.052	-12.3397	-32.0801	-109.344	-31.9527	-43.0683	-139.083	7.85057	1.99065	-137.891	7.37468	-15.8819	-140.424	11.5196	-37.4473	-129.928	18.5493	33.2794	-138.642	19.5121	62.3965	-105.549	12.5651	54.4611	
57	0.475	-96.7296	-12.0085	68.6214	-79.964	-26.6935	51.5059	-69.6334	-33.9082	28.4276	-61.4579	-42.1972	13.6871	-76.4699	-0.799176	1.34224	-73.0848	-9.90093	-19.3581	-67.2282	-24.0926	-37.2508	-95.8779	10.4976	-9.31196	-90.7352	6.89058	-28.7749	-85.5757	1.52395	-57.8859	-113.759	0.80044	-10.818	-110.041	-16.2504	-28.8758	-108.602	-36.6033	-34.8966	-138.405	7.57323	-0.343504	-138.646	6.57946	-20.7344	-138.285	10.1375	-36.4674	-129.282	16.9527	35.7005	-132.13	19.3405	61.8666	-106.231	15.421	56.1488	
58	0.483333	-91.5398	-11.6629	70.9237	-78.2927	-26.3391	51.1037	-67.1068	-33.9638	33.5452	-58.7175	-42.2329	13.0823	-76.8181	4.80781	5.56239	-70.3788	-0.432957	-16.4733	-62.4956	-9.98757	-41.0568	-95.8463	6.47405	-7.19654	-87.9699	-4.85361	-33.6012	-84.1978	-18.4096	-55.5141	-115.067	0.482893	-7.36574	-110.995	-20.3536	-26.7588	-107.386	-40.2813	-31.1714	-138.685	5.95486	-0.758374	-136.09	3.73124	-17.6633	-137.5	6.37108	-38.0924	-123.301	17.0603	35.031	-134.287	18.7467	62.2198	-105.413	16.9012	54.5887	
59	0.491667	-91.1614	-13.137	72.9332	-77.8903	-28.454	52.1939	-67.5266	-36.1176	33.6353	-61.4554	-43.8859	13.0787	-72.693	5.57749	4.78072	-63.7715	2.98699	-15.8212	-61.3225	1.51501	-33.9132	-94.0717	-0.390492	-9.32787	-87.474	-16.0444	-27.14	-91.4078	-42.0657	-41.0842	-113.987	-2.55202	-9.04636	-107.953	-22.1851	-25.6953	-107.082	-45.369	-34.2319	-138.219	3.70276	3.01306	-139.312	2.7324	-20.3965	-138.667	4.17564	-34.4843	-129.101	16.7378	38.6126	-134.955	19.4377	61.8825	-101.506	15.5693	57.3112	
60	0.5	-92.2144	-12.6292	72.7298	-79.7193	-27.5616	52.3339	-66.6268	-36.647	29.798	-63.2636	-42.6897	13.0037	-79.5794	5.6702	9.2795	-72.4554	5.67002	-13.0864	-65.1886	7.40274	-37.5496	-93.6628	-4.75125	-6.37804	-93.4162	-25.1302	-22.9182	-94.7691	-59.0814	-24.1181	-117.164	-1.30624	-7.70636	-114.031	-18.0929	-27.5268	-107.852	-36.2187	-37.2978	-139.58	3.2683	2.7297	-143.988	2.67562	-15.6597	-146.31	7.98255	-31.8913	-126.806	15.2214	36.0426	-135.317	16.9282	64.8558	-109.014	14.2585	55.6396	
